<svg xmlns="http://www.w3.org/2000/svg" viewBox="0 0 800 1000" role="img" aria-label="Ilustración del skyline de Nueva York">
<defs>
<linearGradient id="s" x1="0" y1="0" x2="0" y2="1"><stop offset="0" stop-color="#CFE6FB"/><stop offset=".7" stop-color="#EEF5FB"/><stop offset="1" stop-color="#FBE3D8"/></linearGradient>
</defs>
<rect width="800" height="1000" fill="url(#s)"/>
<circle cx="600" cy="260" r="80" fill="#FFFFFF" opacity=".8"/>
<g fill="#9EC3E6"><rect x="20" y="560" width="90" height="300"/><rect x="120" y="500" width="70" height="360"/><rect x="560" y="520" width="80" height="340"/><rect x="650" y="580" width="70" height="280"/><rect x="730" y="540" width="70" height="320"/></g>
<g fill="#2A4C8F"><rect x="60" y="620" width="80" height="240"/><rect x="200" y="450" width="80" height="410"/><rect x="480" y="470" width="70" height="390"/><rect x="600" y="610" width="90" height="250"/><rect x="700" y="660" width="100" height="200"/></g>
<g fill="#0A1A4A">
<path d="M300 860V380h30v-40h20v-50h14v-90h6v90h14v50h20v40h30v480Z"/>
<path d="M150 860V700h50v160Z"/><path d="M420 860V560l30-40 30 40v300Z"/><path d="M540 860V640h60v220Z"/>
</g>
<g fill="#FBD8C4" opacity=".85"><rect x="316" y="410" width="8" height="12"/><rect x="336" y="410" width="8" height="12"/><rect x="356" y="410" width="8" height="12"/><rect x="376" y="410" width="8" height="12"/><rect x="396" y="410" width="8" height="12"/><rect x="316" y="450" width="8" height="12"/><rect x="356" y="450" width="8" height="12"/><rect x="396" y="450" width="8" height="12"/><rect x="336" y="490" width="8" height="12"/><rect x="376" y="490" width="8" height="12"/><rect x="316" y="530" width="8" height="12"/><rect x="396" y="530" width="8" height="12"/><rect x="436" y="600" width="8" height="12"/><rect x="456" y="640" width="8" height="12"/><rect x="216" y="480" width="8" height="12"/><rect x="246" y="520" width="8" height="12"/><rect x="216" y="560" width="8" height="12"/></g>
<rect y="860" width="800" height="140" fill="#7FC2F9"/>
<g stroke="#FFFFFF" stroke-width="4" stroke-linecap="round" opacity=".6"><path d="M60 900h140M320 930h180M560 895h160M140 960h120"/></g>
<path d="M0 870 H800" stroke="#0A1A4A" stroke-width="6"/>
<g fill="none" stroke="#F0544C" stroke-width="3" stroke-dasharray="2 10" stroke-linecap="round"><path d="M40 330 C220 180 420 160 560 240"/></g>
<path d="M574 232 l26 6 -26 8 6-7Z" fill="#F0544C"/>
</svg>
