<svg xmlns="http://www.w3.org/2000/svg">
<symbol id="i-plane" viewBox="0 0 24 24"><path fill="none" stroke="currentColor" stroke-width="1.6" stroke-linecap="round" stroke-linejoin="round" d="M17.8 19.2 16 11l3.5-3.5C21 6 21.5 4 21 3c-1-.5-3 0-4.5 1.5L13 8 4.8 6.2c-.5-.1-.9.1-1.1.5l-.3.5c-.2.5-.1 1 .3 1.3L9 12l-2 3H4l-1 1 3 2 2 3 1-1v-3l3-2 3.5 5.3c.3.4.8.5 1.3.3l.5-.2c.4-.3.6-.7.5-1.2z"/></symbol>
<symbol id="i-sparkle" viewBox="0 0 24 24"><path fill="none" stroke="currentColor" stroke-width="1.6" stroke-linejoin="round" d="M12 3l1.9 5.1L19 10l-5.1 1.9L12 17l-1.9-5.1L5 10l5.1-1.9zM19 16l.8 2.2L22 19l-2.2.8L19 22l-.8-2.2L16 19l2.2-.8z"/></symbol>
<symbol id="i-castle" viewBox="0 0 24 24"><path fill="none" stroke="currentColor" stroke-width="1.6" stroke-linecap="round" stroke-linejoin="round" d="M3 21V10l2-2 2 2v11M17 21V10l2-2 2 2v11M7 21v-8h10v8M10 21v-3a2 2 0 0 1 4 0v3M12 13V6M12 3v3l3-1.5z"/></symbol>
<symbol id="i-bag" viewBox="0 0 24 24"><path fill="none" stroke="currentColor" stroke-width="1.6" stroke-linecap="round" stroke-linejoin="round" d="M5 7h14l-1 14H6zM9 10V6a3 3 0 0 1 6 0v4"/></symbol>
<symbol id="i-palm" viewBox="0 0 24 24"><path fill="none" stroke="currentColor" stroke-width="1.6" stroke-linecap="round" stroke-linejoin="round" d="M13 8c-2 4-3 8-3 13M13 8c-3-2-7-2-9 1 3-1 6 0 9-1zM13 8c2-3 6-4 8-2-3 0-6 1-8 2zM13 8c1-3-1-5-4-6 2 2 3 4 4 6zM13 8c3 0 6 2 6 5-2-3-4-4-6-5zM4 21h14"/></symbol>
<symbol id="i-city" viewBox="0 0 24 24"><path fill="none" stroke="currentColor" stroke-width="1.6" stroke-linecap="round" stroke-linejoin="round" d="M3 21h18M5 21V11h4v10M9 21V6l3-3 3 3v15M15 21v-8h4v8M12 8v1M12 12v1M12 16v1"/></symbol>
<symbol id="i-whatsapp" viewBox="0 0 24 24"><path fill="currentColor" d="M12 2a10 10 0 0 0-8.6 15.1L2 22l5-1.3A10 10 0 1 0 12 2zm0 18.2a8.2 8.2 0 0 1-4.2-1.2l-.3-.2-3 .8.8-2.9-.2-.3A8.2 8.2 0 1 1 12 20.2zm4.5-6.1c-.2-.1-1.5-.7-1.7-.8s-.4-.1-.6.1-.7.8-.8 1-.3.2-.5.1a6.7 6.7 0 0 1-3.3-2.9c-.3-.4.2-.4.7-1.3.1-.2 0-.3 0-.4l-.8-1.8c-.2-.5-.4-.4-.6-.4h-.5a1 1 0 0 0-.7.3 3 3 0 0 0-.9 2.2 5.2 5.2 0 0 0 1.1 2.7 11.8 11.8 0 0 0 4.5 4c1.7.7 2.3.8 3.2.6a2.7 2.7 0 0 0 1.8-1.2 2.2 2.2 0 0 0 .1-1.3c0-.1-.2-.2-.5-.3z"/></symbol>
<symbol id="i-instagram" viewBox="0 0 24 24"><g fill="none" stroke="currentColor" stroke-width="1.7"><rect x="3" y="3" width="18" height="18" rx="5"/><circle cx="12" cy="12" r="4"/></g><circle cx="17.5" cy="6.5" r="1.1" fill="currentColor"/></symbol>
<symbol id="i-phone" viewBox="0 0 24 24"><path fill="none" stroke="currentColor" stroke-width="1.6" stroke-linejoin="round" d="M5 3h3l2 5-2.5 1.5a11 11 0 0 0 7 7L16 14l5 2v3a2 2 0 0 1-2 2A16 16 0 0 1 3 5a2 2 0 0 1 2-2z"/></symbol>
<symbol id="i-arrow" viewBox="0 0 24 24"><path fill="none" stroke="currentColor" stroke-width="1.8" stroke-linecap="round" stroke-linejoin="round" d="M5 12h14M13 6l6 6-6 6"/></symbol>
<symbol id="i-camera" viewBox="0 0 24 24"><path fill="none" stroke="currentColor" stroke-width="1.6" stroke-linejoin="round" d="M3 8h4l2-3h6l2 3h4v12H3z"/><circle cx="12" cy="13.5" r="3.5" fill="none" stroke="currentColor" stroke-width="1.6"/></symbol>
<symbol id="i-style" viewBox="0 0 24 24"><path fill="none" stroke="currentColor" stroke-width="1.6" stroke-linecap="round" stroke-linejoin="round" d="M12 6a2 2 0 1 1 2-2M12 6v2L3 16a1.5 1.5 0 0 0 1 2.5h16a1.5 1.5 0 0 0 1-2.5L12 8"/></symbol>
<symbol id="i-dish" viewBox="0 0 24 24"><path fill="none" stroke="currentColor" stroke-width="1.6" stroke-linecap="round" d="M3 17h18M5 17a7 7 0 0 1 14 0M12 8V6M4 20h16"/></symbol>
<symbol id="i-sun" viewBox="0 0 24 24"><g fill="none" stroke="currentColor" stroke-width="1.6" stroke-linecap="round"><circle cx="12" cy="12" r="4"/><path d="M12 2v2M12 20v2M2 12h2M20 12h2M4.9 4.9l1.4 1.4M17.7 17.7l1.4 1.4M4.9 19.1l1.4-1.4M17.7 6.3l1.4-1.4"/></g></symbol>
<symbol id="i-heart" viewBox="0 0 24 24"><path fill="none" stroke="currentColor" stroke-width="1.6" stroke-linejoin="round" d="M12 20s-8-4.6-8-10.2A4.3 4.3 0 0 1 12 7a4.3 4.3 0 0 1 8 2.8C20 15.4 12 20 12 20z"/></symbol>
<symbol id="i-group" viewBox="0 0 24 24"><g fill="none" stroke="currentColor" stroke-width="1.6" stroke-linecap="round"><circle cx="9" cy="8" r="3"/><circle cx="17" cy="9" r="2.3"/><path d="M3 19a6 6 0 0 1 12 0M15 14.5a4.5 4.5 0 0 1 6 4.5"/></g></symbol>
<symbol id="i-menu" viewBox="0 0 24 24"><path fill="none" stroke="currentColor" stroke-width="1.8" stroke-linecap="round" d="M4 7h16M4 12h16M4 17h16"/></symbol>
<symbol id="i-close" viewBox="0 0 24 24"><path fill="none" stroke="currentColor" stroke-width="1.8" stroke-linecap="round" d="M6 6l12 12M18 6 6 18"/></symbol>
<symbol id="i-map" viewBox="0 0 24 24"><path fill="none" stroke="currentColor" stroke-width="1.6" stroke-linejoin="round" d="M12 21s-7-6.2-7-11.5a7 7 0 0 1 14 0C19 14.8 12 21 12 21z"/><circle cx="12" cy="9.5" r="2.5" fill="none" stroke="currentColor" stroke-width="1.6"/></symbol>
</svg>
